<svg width="95" height="91" viewBox="0 0 95 91" fill="none" xmlns="http://www.w3.org/2000/svg">
<path d="M22.7711 13H16.985L15 68.158H17.9986" fill="white"/>
<path d="M22.7711 13H16.985L15 68.158H17.9986" stroke="#3D4043" stroke-width="0.422343" stroke-miterlimit="10" stroke-linecap="round" stroke-linejoin="round"/>
<path d="M24.3332 68.1581H17.998L19.8141 13.1689" fill="white"/>
<path d="M24.3332 68.158H17.998L19.8141 13.1689" stroke="#3D4043" stroke-width="0.422343" stroke-miterlimit="10" stroke-linecap="round" stroke-linejoin="round"/>
<path d="M22.7715 13H69.6516C69.6516 13 70.8342 70.2698 72.608 75H24.2497L22.7715 13Z" fill="white" stroke="#3D4043" stroke-width="0.422343" stroke-miterlimit="10" stroke-linecap="round" stroke-linejoin="round"/>
<path d="M69.7351 13.085H22.9395V17.3929H69.7351V13.085Z" fill="#3D4043" stroke="#3D4043" stroke-width="0.422343" stroke-miterlimit="10" stroke-linecap="round" stroke-linejoin="round"/>
<path d="M22.9401 19.208L21.6309 68.1998H23.6581L22.9401 19.208Z" fill="#3D4043" stroke="#3D4043" stroke-width="0.422343" stroke-miterlimit="10" stroke-linecap="round" stroke-linejoin="round"/>
<path d="M37.1723 41.3818H30.7949V47.7592H37.1723V41.3818Z" fill="#5382EB" stroke="#5382EB" stroke-width="0.422343" stroke-miterlimit="10"/>
<path d="M32.5684 43.8728L34.131 45.8578L38.7768 39.4805" stroke="#3D4043" stroke-width="0.422343" stroke-miterlimit="10" stroke-linecap="round" stroke-linejoin="round"/>
<path d="M41.3535 47.125H63.1887" stroke="#3D4043" stroke-width="0.422343" stroke-miterlimit="10" stroke-linecap="round" stroke-linejoin="round"/>
<path d="M37.8481 57.8105H31.4707V64.1879H37.8481V57.8105Z" fill="#5382EB" stroke="#5382EB" stroke-width="0.422343" stroke-miterlimit="10"/>
<path d="M33.2031 60.2605L34.7658 62.2456L39.4116 55.8682" stroke="#3D4043" stroke-width="0.422343" stroke-miterlimit="10" stroke-linecap="round" stroke-linejoin="round"/>
<path d="M42.0293 63.5127H63.8645" stroke="#3D4043" stroke-width="0.422343" stroke-miterlimit="10" stroke-linecap="round" stroke-linejoin="round"/>
<path d="M36.5395 24.9941H30.1621V31.3715H36.5395V24.9941Z" fill="#5382EB" stroke="#5382EB" stroke-width="0.422343" stroke-miterlimit="10"/>
<path d="M31.8945 27.4861L33.4572 29.4711L38.103 23.0938" stroke="#3D4043" stroke-width="0.422343" stroke-miterlimit="10" stroke-linecap="round" stroke-linejoin="round"/>
<path d="M40.7207 30.7383H62.5559" stroke="#3D4043" stroke-width="0.422343" stroke-miterlimit="10" stroke-linecap="round" stroke-linejoin="round"/>
<g clip-path="url(#clip0_330_4140)">
<path d="M60.1622 50.9434H57.0719L56.0117 80.4028H57.6133" fill="white"/>
<path d="M60.1622 50.9434H57.0719L56.0117 80.4028H57.6133" stroke="#3D4043" stroke-width="0.22557" stroke-miterlimit="10" stroke-linecap="round" stroke-linejoin="round"/>
<path d="M60.9968 80.4024H57.6133L58.5832 51.0332" fill="white"/>
<path d="M60.9968 80.4024H57.6133L58.5832 51.0332" stroke="#3D4043" stroke-width="0.22557" stroke-miterlimit="10" stroke-linecap="round" stroke-linejoin="round"/>
<path d="M60.1621 50.9434H85.2004C85.2004 50.9434 85.8319 81.5306 86.7793 84.057H60.9516L60.1621 50.9434Z" fill="white" stroke="#3D4043" stroke-width="0.22557" stroke-miterlimit="10" stroke-linecap="round" stroke-linejoin="round"/>
<path d="M85.2451 50.9883H60.252V53.2891H85.2451V50.9883Z" fill="#3D4043" stroke="#3D4043" stroke-width="0.22557" stroke-miterlimit="10" stroke-linecap="round" stroke-linejoin="round"/>
<path d="M60.252 54.2588L59.5527 80.4249H60.6355L60.252 54.2588Z" fill="#3D4043" stroke="#3D4043" stroke-width="0.22557" stroke-miterlimit="10" stroke-linecap="round" stroke-linejoin="round"/>
<path d="M67.8534 66.1016H64.4473V69.5077H67.8534V66.1016Z" fill="#58A55C" stroke="#58A55C" stroke-width="0.22557" stroke-miterlimit="10"/>
<path d="M65.3945 67.4319L66.2291 68.492L68.7104 65.0859" stroke="#3D4043" stroke-width="0.22557" stroke-miterlimit="10" stroke-linecap="round" stroke-linejoin="round"/>
<path d="M70.0859 69.1689H81.7479" stroke="#3D4043" stroke-width="0.22557" stroke-miterlimit="10" stroke-linecap="round" stroke-linejoin="round"/>
<path d="M68.2147 74.876H64.8086V78.2821H68.2147V74.876Z" fill="#58A55C" stroke="#58A55C" stroke-width="0.22557" stroke-miterlimit="10"/>
<path d="M65.7344 76.1848L66.569 77.245L69.0503 73.8389" stroke="#3D4043" stroke-width="0.22557" stroke-miterlimit="10" stroke-linecap="round" stroke-linejoin="round"/>
<path d="M70.4492 77.9219H82.1112" stroke="#3D4043" stroke-width="0.22557" stroke-miterlimit="10" stroke-linecap="round" stroke-linejoin="round"/>
<path d="M67.5155 57.3496H64.1094V60.7557H67.5155V57.3496Z" fill="#58A55C" stroke="#58A55C" stroke-width="0.22557" stroke-miterlimit="10"/>
<path d="M65.0352 58.6799L65.8698 59.7401L68.351 56.334" stroke="#3D4043" stroke-width="0.22557" stroke-miterlimit="10" stroke-linecap="round" stroke-linejoin="round"/>
<path d="M69.748 60.417H81.41" stroke="#3D4043" stroke-width="0.22557" stroke-miterlimit="10" stroke-linecap="round" stroke-linejoin="round"/>
<rect width="68.2141" height="45.3977" transform="translate(37.3184 44.5342)" fill="white"/>
<path d="M93.0646 56.9902H54.5195V84.2759H93.0754V56.9902H93.0646Z" fill="white" stroke="#3D4043" stroke-width="0.130679" stroke-miterlimit="10" stroke-linecap="round" stroke-linejoin="round"/>
<path d="M61.6367 72.1723L69.7433 75.9711L77.8499 66.4805L85.9565 69.3328" stroke="#3D4043" stroke-width="0.130679" stroke-miterlimit="10" stroke-linecap="round" stroke-linejoin="round"/>
<path d="M61.1119 73.1418C61.8045 73.1418 62.3664 72.5799 62.3664 71.8873C62.3664 71.1947 61.8045 70.6328 61.1119 70.6328C60.4193 70.6328 59.8574 71.1947 59.8574 71.8873C59.8574 72.5799 60.4193 73.1418 61.1119 73.1418Z" fill="#5382EB" stroke="#5382EB" stroke-width="0.130679" stroke-miterlimit="10" stroke-linecap="round" stroke-linejoin="round"/>
<path d="M69.4166 77.2942C70.1092 77.2942 70.6711 76.7323 70.6711 76.0397C70.6711 75.3471 70.1092 74.7852 69.4166 74.7852C68.724 74.7852 68.1621 75.3471 68.1621 76.0397C68.1621 76.7323 68.724 77.2942 69.4166 77.2942Z" fill="#D75140" stroke="#D75140" stroke-width="0.130679" stroke-miterlimit="10" stroke-linecap="round" stroke-linejoin="round"/>
<path d="M78.3151 67.804C79.0077 67.804 79.5696 67.242 79.5696 66.5494C79.5696 65.8568 79.0077 65.2949 78.3151 65.2949C77.6225 65.2949 77.0605 65.8568 77.0605 66.5494C77.0605 67.242 77.6225 67.804 78.3151 67.804Z" fill="#F0BE42" stroke="#F0BE42" stroke-width="0.130679" stroke-miterlimit="10" stroke-linecap="round" stroke-linejoin="round"/>
<path d="M86.026 70.7698C86.7186 70.7698 87.2805 70.2079 87.2805 69.5153C87.2805 68.8227 86.7186 68.2607 86.026 68.2607C85.3334 68.2607 84.7715 68.8227 84.7715 69.5153C84.7715 70.2079 85.3334 70.7698 86.026 70.7698Z" fill="#58A55C" stroke="#58A55C" stroke-width="0.130679" stroke-miterlimit="10" stroke-linecap="round" stroke-linejoin="round"/>
</g>
<defs>
<clipPath id="clip0_330_4140">
<rect x="48" y="44" width="47" height="47" rx="8.54545" fill="white"/>
</clipPath>
</defs>
</svg>
